# Alias OBJ Model File
# Exported from SketchUp, (c) 2000-2012 Trimble Navigation Limited
# File units = inches

mtllib apartman_2.mtl

g Mesh1 Model

usemtl images
v 156.222 56.5 -63.4332
vt -4.45237 7.18562
vn 0 0 -1
v 156.222 0 -63.4332
vt -4.45237 0
v 91.9716 0 -63.4332
vt 0.985228 0
v 91.9716 56.5 -63.4332
vt 0.985228 7.18562
v 135.222 56.5 -63.4332
vt -2.6751 7.18562
f 1/1/1 2/2/1 3/3/1 4/4/1 5/5/1 

v 156.222 56.5 1.25432
vt -3.96811 7.16463
vn 1 0 -0
v 156.222 0 1.25432
vt -3.96811 0
vt 1.49052 0
vt 1.49052 7.16463
f 6/6/2 7/7/2 2/8/2 1/9/2 

v 143.176 3.03617 1.25432
vt 4.17995 0.372453
vn 0 0 1
vt 5.2449 0
vt 5.2449 6.93097
f 8/10/3 7/11/3 6/12/3

v 126.674 0 1.25432
vt 2.83283 0
f 7/11/3 8/10/3 9/13/3

v 139.738 3.03617 1.25432
vt 3.89934 0.372453
f 10/14/3 9/13/3 8/10/3

v 126.674 7.75 1.25432
vt 2.83283 0.950708
f 9/13/3 10/14/3 11/15/3

v 139.738 6.47367 1.25432
vt 3.89934 0.794138
f 11/15/3 10/14/3 12/16/3

vt -7.40549 0.794138
vn -1 0 -0
vt -7.40549 0.372453
v 139.738 3.03617 1.56682
vt -7.37998 0.372453
v 139.738 6.47367 1.56682
vt -7.37998 0.794138
f 12/17/4 10/18/4 13/19/4 14/20/4 

vt -18.9151 -0.15387
vn 0 -1 -0
vt -19.1957 -0.15387
v 143.176 3.03617 1.56682
vt -19.1957 -0.192205
vt -18.9151 -0.192205
f 10/21/5 8/22/5 15/23/5 13/24/5 

vt -7.61028 0.372453
v 143.176 6.47367 1.25432
vt -7.61028 0.794138
v 143.176 6.47367 1.56682
vt -7.63579 0.794138
vt -7.63579 0.372453
f 8/25/2 16/26/2 17/27/2 15/28/2 

vt 4.17995 0.794138
f 8/10/3 6/12/3 16/29/3

f 16/29/3 6/12/3 12/16/3

f 12/16/3 6/12/3 11/15/3

v 120.049 7.75 1.25432
vt 2.29202 0.950708
f 11/15/3 6/12/3 18/30/3

v 91.9716 56.5 1.25432
vt 0 6.93097
f 19/31/3 18/30/3 6/12/3

v 91.9716 0 1.25432
vt 0 0
f 20/32/3 18/30/3 19/31/3

v 120.049 0 1.25432
vt 2.29202 0
f 18/30/3 20/32/3 21/33/3

usemtl FrontColor
vt -120.049 -1.25432
vt -91.9716 -1.25432
vt -91.9716 63.4332
vt -156.222 63.4332
vt -156.222 -1.25432
vt -126.674 -1.25432
v 126.674 0 1.62932
vt -126.674 -1.62932
v 126.36 0 1.62932
vt -126.36 -1.62932
v 126.36 0 1.25432
vt -126.36 -1.25432
v 126.246 0 1.25432
vt -126.246 -1.25432
v 126.246 0 1.62932
vt -126.246 -1.62932
v 120.437 0 1.62932
vt -120.437 -1.62932
v 120.437 0 1.25432
vt -120.437 -1.25432
v 120.263 0 1.25432
vt -120.263 -1.25432
v 120.263 0 1.62932
vt -120.263 -1.62932
v 120.049 0 1.62932
vt -120.049 -1.62932
f 21/34/5 20/35/5 3/36/5 2/37/5 7/38/5 9/39/5 22/40/5 23/41/5 24/42/5 25/43/5 26/44/5 27/45/5 28/46/5 29/47/5 30/48/5 31/49/5 

usemtl images
vt 1.77158 0
vt 1.77158 8.7286
v 91.9716 56.5 -13.6832
vt 0.235925 8.7286
vt -4.87863 8.7286
vt -4.87863 0
f 20/50/4 19/51/4 32/52/4 4/53/4 3/54/4 

v 135.222 56.5 -13.7599
vt -0.147086 0.486077
vn 0 1 -0
v 134.419 56.5 -13.7599
vt -0.186454 0.486077
v 134.419 56.5 -13.6832
vt -0.186454 0.480423
vt -2.26902 0.480423
vt -2.26902 -0.620874
vt 0.883215 -0.620874
vt 0.883215 4.14834
vt -0.147086 4.14834
f 33/55/6 34/56/6 35/57/6 32/58/6 19/59/6 6/60/6 1/61/6 5/62/6 

usemtl FrontColor
v 134.419 56.5 -62.4474
vt 134.419 62.4474
vt 134.419 13.7599
vt 135.222 13.7599
f 36/63/6 34/64/6 33/65/6

v 134.419 56.5 -14.653
vt 134.419 14.653
f 37/66/6 34/64/6 36/63/6

vt 134.419 13.6832
f 37/66/6 35/67/6 34/64/6

v 93.4091 56.5 -14.653
vt 93.4091 14.653
f 38/68/6 35/67/6 37/66/6

vt 91.9716 13.6832
f 38/68/6 32/69/6 35/67/6

vt 91.9716 63.4332
f 32/69/6 38/68/6 4/70/6

v 93.4091 56.5 -62.4474
vt 93.4091 62.4474
f 39/71/6 4/70/6 38/68/6

vt 135.222 63.4332
f 4/70/6 39/71/6 5/72/6

f 5/72/6 39/71/6 36/63/6

usemtl images
vt -4.72304 1.77636e-015
vt 2.77836 1.77636e-015
v 134.419 60.625 -62.4474
vt 2.77836 1.13385
v 93.4091 60.625 -62.4474
vt -4.72304 1.13385
f 39/73/3 36/74/3 40/75/3 41/76/3 

vt -2.19849 0.551923
vt -0.186454 0.551923
vt -0.186454 4.07566
vt -2.19849 4.07566
f 38/77/6 37/78/6 36/79/6 39/80/6 

vt 3.58924 0
v 93.4091 60.625 -14.653
vt 3.58924 0.953657
v 134.419 60.625 -14.653
vt -2.72001 0.953657
vt -2.72001 0
f 38/81/1 42/82/1 43/83/1 37/84/1 

vt -1.2864 0
vt 6.4239 0
vt 6.4239 1
vt -1.2864 1
f 38/85/2 39/86/2 41/87/2 42/88/2 

vt -14.2168 24.5086
v 91.9716 60.625 -63.4332
vt -14.7105 25.0174
vt -14.2168 -0.15951
f 41/89/6 44/90/6 42/91/6

v 135.222 60.625 -63.4332
vt 0.14416 25.0174
f 44/90/6 41/89/6 45/92/6

vt -0.131436 24.5086
f 45/92/6 41/89/6 40/93/6

v 135.222 60.625 -13.7599
vt 0.14416 -0.620469
f 45/92/6 40/93/6 46/94/6

v 134.419 60.625 -13.7599
vt -0.131436 -0.620469
f 40/93/6 47/95/6 46/94/6

vt -0.131436 -0.15951
f 43/96/6 47/95/6 40/93/6

v 134.419 60.625 -13.6832
vt -0.131436 -0.660049
f 43/96/6 48/97/6 47/95/6

f 42/91/6 48/97/6 43/96/6

v 91.9716 60.625 -13.6832
vt -14.7105 -0.660049
f 42/91/6 49/98/6 48/97/6

f 49/98/6 42/91/6 44/90/6

vt 7.37711 -0.393281
vt 7.37711 1.50674
vt -7.87206 1.50674
vt -7.87206 -0.393281
f 32/99/4 49/100/4 44/101/4 4/102/4 

vt -0.853596 1.06337
vt -0.853596 0
vt 6.42807 0
vt 6.42807 1.06337
f 49/103/3 32/104/3 35/105/3 48/106/3 

usemtl FrontColor
vt 13.6832 56.5
vn 1 0 3.70625e-013
vt 13.7599 56.5
vt 13.7599 60.625
vt 13.6832 60.625
f 35/107/7 34/108/7 47/109/7 48/110/7 

vt 14.653 60.625
vn 1 0 -3.18233e-014
vt 14.653 56.5
f 43/111/8 47/109/8 34/108/8 37/112/8 

usemtl images
vt 0.418745 2.28949
vt -0.15082 2.28949
vt -0.15082 -2.11051
vt 0.418745 -2.11051
f 46/113/3 47/114/3 34/115/3 33/116/3 

vt 4.9756 1.12283
vt -4.02212 1.12283
vt -4.02212 0
vt 4.9756 0
f 45/117/2 46/118/2 33/119/2 5/120/2 

usemtl FrontColor
f 5/72/6 36/63/6 33/65/6

usemtl images
vt 3.67247 -0.131703
vt 3.67247 0.828441
vt -3.02663 0.828441
vt -3.02663 -0.131703
f 4/121/1 44/122/1 45/123/1 5/124/1 

vt -4.17958 0
vn -1 0 -5.94666e-016
vt 1.9381 0
vt 1.9381 0.793443
vt -4.17958 0.793443
f 36/125/9 37/126/9 43/127/9 40/128/9 

vt -7.61028 0
vt -7.61028 0.950708
v 126.674 7.75 1.62932
vt -7.64089 0.950708
vt -7.64089 0
f 9/129/2 11/130/2 50/131/2 22/132/2 

vt 2.83283 -0.15387
vt 2.29202 -0.15387
v 120.049 7.75 1.62932
vt 2.29202 -0.199872
vt 2.83283 -0.199872
f 11/133/6 18/134/6 51/135/6 50/136/6 

vt -7.40549 0.950708
vt -7.40549 0
vt -7.37488 0
vt -7.37488 0.950708
f 18/137/4 21/138/4 31/139/4 51/140/4 

v 126.36 7.5625 1.62932
vt 2.80724 0.927707
v 126.36 0.195066 1.62932
vt 2.80724 0.0239292
vt 2.80724 0
vt 2.30951 0
v 120.263 0.195066 1.62932
vt 2.30951 0.0239292
v 120.263 1.4375 1.62932
vt 2.30951 0.176341
v 120.263 7.5625 1.62932
vt 2.30951 0.927707
f 52/141/3 53/142/3 23/143/3 22/13/3 50/15/3 51/30/3 31/33/3 30/144/3 54/145/3 55/146/3 56/147/3 

v 126.36 7.5625 1.25432
vt -7.40549 0.927707
v 126.36 0.195066 1.25432
vt -7.40549 0.0239292
vt -7.37488 0.0239292
vt -7.37488 0.927707
f 57/148/4 58/149/4 53/150/4 52/151/4 

v 120.263 0.195066 1.25432
v 120.263 7.5625 1.25432
v 120.263 1.4375 1.25432
f 59/145/3 58/142/3 57/141/3 60/147/3 61/146/3 

vt 2.80724 -0.15387
vn 4.55218e-018 1 -0
vt 2.30951 -0.15387
vt 2.30951 -0.199872
vt 2.80724 -0.199872
f 58/152/10 59/153/10 54/154/10 53/155/10 

vt -7.40549 -9.81181
vn -0.745697 -0.666285 -0
vt -7.40549 -9.8439
vt -7.37488 -9.8439
vt -7.37488 -9.81181
f 59/156/11 28/157/11 27/158/11 54/159/11 

vt 2.32374 0
f 28/160/3 59/145/3 29/144/3

vt -7.61028 0.0239292
vt -7.64089 0.0239292
f 29/129/2 59/161/2 54/162/2 30/132/2 

vt -7.61028 0.176341
vt -7.64089 0.176341
f 59/161/2 61/163/2 55/164/2 54/162/2 

vt -7.61028 0.927707
vt -7.64089 0.927707
f 61/163/2 60/165/2 56/166/2 55/164/2 

vt -17.3253 -0.15387
vt -17.823 -0.15387
vt -17.823 -0.199872
vt -17.3253 -0.199872
f 60/167/5 57/168/5 52/169/5 56/170/5 

vt 2.79795 0
f 27/160/3 26/171/3 53/142/3 54/145/3 

vt -7.61028 7.80695
vn 0.863645 -0.5041 -0
vt -7.61028 7.83466
vt -7.64089 7.83466
vt -7.64089 7.80695
f 25/172/12 58/173/12 53/174/12 26/175/12 

f 25/171/3 24/143/3 58/142/3

f 58/149/4 24/138/4 23/139/4 53/150/4 

vt 4.17995 -0.15387
vt 3.89934 -0.15387
vt 3.89934 -0.192205
vt 4.17995 -0.192205
f 16/176/6 12/177/6 14/178/6 17/179/6 

f 14/16/3 13/14/3 15/10/3 17/29/3 

g Mesh2 Model

usemtl FrontColor
v 102.315 70.1875 -54.4714
vt -102.315 70.1875
v 123.128 70.1875 -54.4714
vt -123.128 70.1875
v 123.128 56.5 -54.4714
vt -123.128 56.5
v 102.315 56.5 -54.4714
vt -102.315 56.5
f 62/180/1 63/181/1 64/182/1 65/183/1 

usemtl images
vt 1.33393 2.43389
vt -0.280861 2.43389
v 102.315 70.1875 -33.5964
vt -0.280861 0
v 123.128 70.1875 -33.5964
vt 1.33393 0
f 63/184/6 62/185/6 66/186/6 67/187/6 

usemtl FrontColor
vt -54.4714 70.1875
vt -54.4714 56.5
v 102.315 56.5 -33.5964
vt -33.5964 56.5
vt -33.5964 70.1875
f 62/188/4 65/189/4 68/190/4 66/191/4 

vt -102.315 54.4714
vt -123.128 54.4714
v 123.128 56.5 -33.5964
vt -123.128 33.5964
vt -102.315 33.5964
f 65/192/5 64/193/5 69/194/5 68/195/5 

vt 54.4714 56.5
vt 54.4714 70.1875
vt 33.5964 70.1875
vt 33.5964 56.5
f 64/196/2 63/197/2 67/198/2 69/199/2 

usemtl __erik
v 102.296 56.5 -54.4714
vt 1 0
v 102.296 70.1875 -54.4714
vt 1 1
vt 0 1
f 64/32/1 70/200/1 71/201/1 63/202/1 

usemtl FrontColor
vt 123.128 70.1875
vt 102.315 70.1875
vt 102.315 56.5
vt 123.128 56.5
f 67/203/3 66/204/3 68/205/3 69/206/3 

usemtl __erik
v 123.128 56.5 -54.4285
v 123.128 70.1875 -54.4285
f 69/32/2 72/200/2 73/201/2 67/202/2 

v 102.315 70.2157 -33.5964
v 102.315 70.2157 -54.4714
f 65/32/4 68/200/4 74/201/4 75/202/4 

g Mesh3 Model

usemtl Building_texture4
v 91.9716 8.08692 1.25432
v 156.435 8.08692 1.25432
v 156.435 56.487 1.25432
v 91.9716 56.487 1.25432
f 76/32/3 77/200/3 78/201/3 79/202/3 

g Mesh4 Model

v 156.435 8.08692 -63.3913
v 156.435 56.6241 -63.3913
v 156.435 56.6241 1.25432
f 77/32/2 80/200/2 81/201/2 82/202/2 

g Mesh5 Model

v 91.9716 8.08692 -63.4332
v 91.9716 8.08692 1.25432
v 91.9716 56.6556 1.25432
v 91.9716 56.6556 -63.4332
f 83/32/4 84/200/4 85/201/4 86/202/4 

g Mesh6 Model

v 156.452 8.08692 -63.4332
v 156.452 56.5 -63.4332
f 87/32/1 83/200/1 4/201/1 88/202/1 

g Mesh7 Model

usemtl Doors
v 126.36 7.70173 1.25432
v 120.263 7.70173 1.25432
f 29/32/3 24/200/3 89/201/3 90/202/3 

g Mesh8 Model

usemtl __erik
v 102.361 56.5 -33.5964
v 123.128 70.1445 -33.5964
v 102.361 70.1445 -33.5964
f 91/32/3 69/200/3 92/201/3 93/202/3 

g Mesh9 Model

usemtl png_window_4_by_paradise234_d5i7f6m
v 139.738 2.52462 1.56682
v 143.301 2.52462 1.56682
v 143.301 6.97784 1.56682
v 139.738 6.97784 1.56682
f 94/32/3 95/200/3 96/201/3 97/202/3 

